<?xml version="1.0" encoding="utf-8"?>
<!-- Generator: Adobe Illustrator 25.0.0, SVG Export Plug-In . SVG Version: 6.00 Build 0)  -->
<svg version="1.1" id="Layer_1" xmlns="http://www.w3.org/2000/svg" xmlns:xlink="http://www.w3.org/1999/xlink" x="0px" y="0px"
	 viewBox="0 0 237.6 65.9" style="enable-background:new 0 0 237.6 65.9;" xml:space="preserve">
<style type="text/css">
	.st0{fill:#D6B048;}
</style>
<g>
	<path class="st0" d="M209.4,25.1c-1.4,0-2.5-1.1-2.5-2.5c0-0.8,0.3-1.5,0.9-1.9l25.8-20.2c1-0.9,2.5-0.9,3.5,0.1s0.9,2.5-0.1,3.5
		c-0.1,0.1-0.2,0.2-0.4,0.3L211,24.6C210.6,24.9,210,25.1,209.4,25.1"/>
	<path class="st0" d="M209.4,35.3c-1.4,0-2.5-1.1-2.5-2.5c0-0.8,0.3-1.5,0.9-1.9l12.9-10.1c1-0.9,2.6-0.8,3.5,0.2s0.8,2.6-0.2,3.5
		c-0.1,0.1-0.2,0.2-0.3,0.2L211,34.8C210.6,35.1,210,35.3,209.4,35.3"/>
	<path class="st0" d="M209.4,45.5c-1.4,0-2.5-1.1-2.5-2.5c0-0.8,0.3-1.5,0.9-1.9l25.8-20.2c1-0.9,2.6-0.8,3.5,0.2s0.8,2.6-0.2,3.5
		c-0.1,0.1-0.2,0.2-0.3,0.2L211,45C210.6,45.3,210,45.5,209.4,45.5"/>
	<path class="st0" d="M209.4,55.7c-1.4,0-2.5-1.1-2.5-2.5c0-0.8,0.3-1.5,0.9-1.9l12.9-10.1c1-0.9,2.6-0.8,3.5,0.2s0.8,2.6-0.2,3.5
		c-0.1,0.1-0.2,0.2-0.3,0.2L211,55.2C210.6,55.5,210,55.7,209.4,55.7"/>
	<path class="st0" d="M209.4,65.9c-1.4,0-2.5-1.1-2.5-2.5c0-0.8,0.3-1.5,0.9-1.9l25.8-20.2c1-0.9,2.5-0.9,3.5,0.1
		c0.9,1,0.9,2.5-0.1,3.5c-0.1,0.1-0.2,0.2-0.4,0.3L211,65.4C210.6,65.7,210,65.9,209.4,65.9"/>
</g>
<polygon points="0,31.4 0,55.4 15.8,55.4 15.8,52 3.8,52 3.8,44.9 14,44.9 14,41.6 3.8,41.6 3.8,34.7 15.3,34.7 15.3,31.4 "/>
<polygon points="20.6,30.9 20.8,30.9 30.3,45.6 39.8,30.9 40,30.9 42.7,55.4 39,55.4 37.5,40.5 30.3,51.7 30.2,51.7 23,40.5 
	21.5,55.4 18,55.4 "/>
<polygon points="46.3,31.4 61.6,31.4 61.6,34.7 50.1,34.7 50.1,41.6 60.3,41.6 60.3,44.9 50.1,44.9 50.1,52 62.1,52 62.1,55.4 
	46.3,55.4 "/>
<g>
	<path d="M68.9,55.4h-3.8v-24h7.7c5.6,0,8.8,3.1,8.8,7.6c0.2,3.1-1.7,5.9-4.6,6.8l5.8,9.5h-4.2l-5.4-8.9h-4.4L68.9,55.4L68.9,55.4z
		 M72.7,43.3c3.6,0,5-1.4,5-4.3s-1.5-4.3-5-4.3h-3.8v8.5L72.7,43.3L72.7,43.3z"/>
	<path d="M86.1,49.1c1,2.1,3.1,3.3,5.4,3.2c2.6,0,4.2-1.2,4.2-3.2c0-2.3-1.7-3.1-3.8-4.1l-1.7-0.7c-3.5-1.6-6-3.3-6-7.1
		S87,31,91.1,31c3.3,0,5.6,1.2,7.1,3.8l-2.9,1.9c-0.8-1.5-2.4-2.4-4.1-2.3c-2,0-3.3,1.1-3.3,2.8c0,1.9,1.2,2.6,3.8,3.8l1.7,0.7
		c3.6,1.6,6.1,3.3,6.1,7.4c0,4.4-3.4,6.6-8,6.6c-3.6,0.2-7-1.8-8.7-5L86.1,49.1z"/>
</g>
<polygon points="107.2,34.7 100.1,34.7 100.1,31.4 118.2,31.4 118.2,34.7 111,34.7 111,55.4 107.2,55.4 "/>
<g>
	<path d="M118,43.4c0-6.8,5.5-12.4,12.3-12.5c6.8,0,12.4,5.5,12.5,12.3c0,6.8-5.5,12.4-12.3,12.5c0,0,0,0-0.1,0
		c-6.7,0.1-12.3-5.2-12.4-11.9C118,43.7,118,43.5,118,43.4 M138.9,43.4c0-5.1-3.5-8.9-8.5-8.9s-8.5,3.8-8.5,8.9s3.5,8.9,8.5,8.9
		C135.4,52.3,138.9,48.5,138.9,43.4"/>
</g>
<polygon points="149.3,39.6 149.3,55.4 145.8,55.4 145.8,31 146.1,31 161.5,47.2 161.5,31.4 165,31.4 165,55.7 164.7,55.7 "/>
<polygon points="169.2,31.4 184.5,31.4 184.5,34.7 173,34.7 173,41.6 183.2,41.6 183.2,44.9 173,44.9 173,52 185,52 185,55.4 
	169.2,55.4 "/>
<g>
	<path d="M190.8,30.9c0.4,0,0.8,0.1,1.1,0.3c0.4,0.2,0.7,0.5,0.9,0.9c0.2,0.4,0.3,0.8,0.3,1.2s-0.1,0.8-0.3,1.2s-0.5,0.7-0.9,0.9
		s-0.8,0.3-1.2,0.3s-0.8-0.1-1.2-0.3s-0.7-0.5-0.9-0.9s-0.3-0.8-0.3-1.2s0.1-0.8,0.3-1.2c0.2-0.4,0.5-0.7,0.9-0.9
		C190,31,190.4,30.9,190.8,30.9 M190.8,31.3c-0.3,0-0.7,0.1-1,0.2c-0.3,0.2-0.6,0.4-0.7,0.7c-0.2,0.3-0.3,0.6-0.3,1s0.1,0.7,0.3,1
		c0.6,0.9,1.7,1.2,2.7,0.7c0.3-0.2,0.6-0.4,0.7-0.7c0.2-0.3,0.3-0.7,0.2-1c0-0.4-0.1-0.7-0.3-1s-0.4-0.6-0.7-0.7
		C191.5,31.4,191.1,31.3,190.8,31.3 M189.8,34.5V32h0.9c0.2,0,0.4,0,0.6,0.1c0.1,0,0.2,0.1,0.3,0.2c0.1,0.1,0.1,0.2,0.1,0.4
		s-0.1,0.4-0.2,0.5c-0.1,0.1-0.3,0.2-0.5,0.2c0.1,0,0.2,0.1,0.2,0.1c0.1,0.2,0.3,0.3,0.4,0.5l0.3,0.5h-0.5l-0.2-0.4
		c-0.1-0.2-0.3-0.4-0.4-0.6c-0.1-0.1-0.2-0.1-0.3-0.1h-0.2v1.1H189.8z M190.2,33.1h0.5c0.2,0,0.3,0,0.5-0.1c0.1-0.1,0.1-0.2,0.1-0.3
		s0-0.1-0.1-0.2c0-0.1-0.1-0.1-0.2-0.1c-0.1,0-0.3,0-0.4,0h-0.5L190.2,33.1L190.2,33.1z"/>
</g>
</svg>
