<?xml version="1.0" encoding="utf-8"?>
<!-- Generator: Adobe Illustrator 25.0.0, SVG Export Plug-In . SVG Version: 6.00 Build 0)  -->
<svg version="1.1" id="Layer_1" xmlns="http://www.w3.org/2000/svg" xmlns:xlink="http://www.w3.org/1999/xlink" x="0px" y="0px"
	 viewBox="0 0 544 252" style="enable-background:new 0 0 544 252;" xml:space="preserve">
<path d="M333.1,83.1H322V100c0,5.2-2.6,7.4-6,7.4c-3.5,0-5.8-2.2-5.8-6.8V83.1h-11.1V102c0,8.9,6.2,14.3,17.2,14.3
	s16.8-5.9,16.8-15.5L333.1,83.1 M285.8,118.1c-3.7-1.1-7.2-2.6-10.6-4.5c5.5-3.3,8.2-8,8.2-14c0-8.7-5.7-17-18-17
	c-12.5,0-17.5,8.7-17.5,16.7c0,7.4,4.1,13.5,12.2,18.1c4.7,2.7,14.1,6.7,18.4,7.6L285.8,118.1 M259.1,99.6c0-4.5,2.6-7.4,6.5-7.4
	c4,0,6.7,2.9,6.7,7.3c0,4.4-2.6,7.3-6.6,7.3C261.8,106.9,259.1,103.9,259.1,99.6 M248.6,46.4v25.4h6.1V61.6h4.9
	c5.7,0,8.1-4.1,8.1-7.7c0-3.5-2.5-7.5-8.2-7.5L248.6,46.4 M254.7,51h2.2c3.3,0,4.5,0.8,4.5,2.9c0,1.9-1,2.9-3.8,2.9h-2.9V51z
	 M275.4,54.6h-5.2v17.2h5.2v-7.4c1.2-3.2,2.4-5,4.3-5c1.1,0.1,2.2,0.6,3.1,1.3l1.4-4.8c-1.5-1.2-2.4-1.6-3.5-1.6
	c-2,0-3.8,1.7-5.3,5.3h-0.1L275.4,54.6z M302.4,66.5c-2.5,1.8-4.1,2.5-6.2,2.5c-3.3,0-5.3-1.8-5.5-4.8h12c0.3-6.3-3.8-9.8-8.6-9.8
	c-5.1,0-8.8,3.7-8.8,9c0,5.4,3.8,8.9,9.7,8.9c2.7,0.1,5.3-0.7,7.4-2.3L302.4,66.5z M290.9,61.2c0.2-2.4,1.6-3.8,3.6-3.8
	c2,0,3.4,1.4,3.6,3.8H290.9z M310.8,54.6h-5.2v17.2h5.2V60.3c1.3-1.6,2.6-2.4,4-2.4c1.6,0,3.2,0.9,3.2,3.7v10.2h5.2v-11
	c1.2-1.9,2.6-2.9,4.1-2.9c1.9,0,3.1,1.4,3.1,3.8v10h5.2v-11c0.2-3.4-2.5-6.3-5.9-6.5c-0.2,0-0.4,0-0.6,0c-2.5,0-4.4,1.1-6.6,3.7
	c-1-2.4-3.4-3.8-6-3.7c-1,0-2.1,0.2-3,0.6c-1,0.5-2,1.2-2.8,1.9L310.8,54.6z M338.7,71.8h5.2V54.6h-5.2V71.8z M341.3,46
	c-1.6-0.1-3,1.2-3.1,2.9c-0.1,1.6,1.2,3,2.9,3.1c1.6,0.1,3-1.2,3.1-2.9c0,0,0-0.1,0-0.1C344.2,47.4,342.9,46.1,341.3,46 M358.4,71.8
	h5.2V54.6h-5.3v11c-0.4,1.6-1.9,2.8-3.6,2.9c-1.4,0-2.6-0.9-2.6-3.3V54.6h-5.2v11c0,4.4,2.8,6.5,6.1,6.5c2.1,0,4.1-1,5.4-2.8
	L358.4,71.8z M371.9,54.6h-5.2v17.2h5.2V60.3c1.3-1.6,2.6-2.4,4-2.4c1.6,0,3.2,0.9,3.2,3.7v10.2h5.2v-11c1.2-1.9,2.6-2.9,4.1-2.9
	c1.9,0,3.1,1.4,3.1,3.8v10h5.2v-11c0.2-3.4-2.5-6.3-5.9-6.5c-0.2,0-0.4,0-0.6,0c-2.5,0-4.4,1.1-6.6,3.7c-1-2.4-3.4-3.8-6-3.7
	c-1,0-2.1,0.2-3,0.6c-1,0.5-2,1.2-2.8,1.9L371.9,54.6z M436.9,46.4h-6.1v15.5l-13.2-15.5h-5.6v25.4h6.1V55.5l13.6,16.3h5.2
	L436.9,46.4z M457.4,67.5c-1.2,0.9-1.6,1-2,1c-0.5,0-0.9-0.3-0.9-1.2v-7.8c0-3.8-2.9-5.2-7-5.2c-2.6,0-5.1,0.7-7.2,2.1v4.4
	c1.6-1.7,3.8-2.7,6.1-2.9c2.3,0,3,1.3,2.9,2.9c-7,2.2-9.9,3.1-9.9,7.2c0.2,2.4,2.2,4.3,4.7,4.2c2,0,3.9-0.7,5.5-1.9
	c0.4,1.4,1.2,1.9,2.9,1.9c1.7-0.1,3.4-0.6,4.9-1.6L457.4,67.5z M449.3,67.6c-0.8,0.8-1.8,1.2-2.9,1.3c-1,0-1.7-0.9-1.7-1.8
	c0-1.7,1.5-2.5,4.6-3.6V67.6z M470.3,54.6h-6.1v-5.4h-0.6l-7,8v1h2.4v7.4c0,4.8,3,6.4,6.5,6.4c1.7,0,3.3-0.4,4.8-1.1v-3.9
	c-1.1,0.6-2.3,1-3.5,1c-1.4,0.1-2.5-1-2.6-2.4c0-0.1,0-0.3,0-0.4v-7.1h6.1L470.3,54.6z M483.8,71.8h5.2V54.6h-5.3v11
	c-0.5,1.6-1.9,2.8-3.6,2.9c-1.4,0-2.6-0.9-2.6-3.3V54.6h-5.2v11c0,4.4,2.8,6.5,6.1,6.5c2.1,0,4.1-1,5.4-2.8L483.8,71.8z M497.3,54.6
	H492v17.2h5.2v-7.4c1.2-3.2,2.4-5,4.3-5c1.1,0.1,2.2,0.6,3.1,1.3l1.4-4.8c-1.5-1.2-2.4-1.6-3.5-1.6c-2,0-3.8,1.7-5.3,5.3h-0.1
	L497.3,54.6z M521.9,67.5c-1.2,0.9-1.6,1-2,1c-0.5,0-0.9-0.3-0.9-1.2v-7.8c0-3.8-2.9-5.2-7.1-5.2c-2.6,0-5.1,0.7-7.2,2.1l0,4.2
	c1.6-1.7,3.8-2.7,6.2-2.7c2.3,0,3,1.3,2.9,2.9c-7,2.2-9.9,3.1-9.9,7.2c0.2,2.4,2.2,4.3,4.7,4.2c2,0,3.9-0.7,5.5-1.9
	c0.4,1.4,1.2,1.9,2.9,1.9c1.7-0.1,3.4-0.6,4.9-1.6L521.9,67.5z M513.8,67.6c-0.8,0.8-1.8,1.2-2.9,1.3c-1,0-1.7-0.9-1.7-1.8
	c0-1.7,1.5-2.5,4.6-3.6V67.6z M523.4,71.8h5.2V46.4h-5.2V71.8z M226.7,115.5c0.1-34.9-15.5-68-42.5-90.2
	c10.8,12.9,17.2,28.9,18.2,45.7l0,0.1l0-0.1c0.1,2,0.2,4,0.2,6c0,46.6-33.9,76.7-72.6,83.4c-4.8,0.8-8.5,1.7-12.9,2.8l4.3,1.7
	l13.8,5.9l39.2,16.9c6.2,2.5,11.3,3.9,13.9,3.9c5.1,0,11-0.8,14.6-5.6c0.1-0.1,0,0.1-0.2,0.5C218.3,166.3,226.8,141.3,226.7,115.5
	L226.7,115.5z"/>
<path d="M177.6,210.1c-7.2,0-14.2-4.2-18.3-6.4l-48.6-25.9c-6.7-3.2-9.8-5.4-17.2-5.4c-9.3,0-14.6,3.9-21.1,10.1
	c-1.4,1.2-2.4,2-3.1,2c-0.8,0-1.3-1.8-1.5-3.4c-0.1-0.8-0.2-1.5-0.2-2.3c0.4-3.2,5.2-3.9,11.5-7.2c2.1-1.1,4.2-2.2,6.8-3.4
	c3.7-1.8,8.4-3.8,15.1-6.3c0.7-0.3,1.5-0.5,2.3-0.8c10.4-3.4,23.4-4.6,38.2-11.3c24.9-11.2,35.5-38,35.5-70.5
	c0-4.8-0.2-9.4-0.6-13.9v0c-3.2-35.8-19.6-61.2-54-65c-3-0.2-6-0.4-9.1-0.4c-3.6,0-7.1,0.2-10.6,0.5C64.8,5.2,49.2,36.6,49.2,79.3
	c0,7.7,0.6,15.4,2,23c5.2,27.8,21,48.1,50.5,52.2l-0.1,0c-3.9,1-7.8,2.3-11.4,4c-32.6-7.7-60.8-32-65.9-69.2
	c-0.6-4.1-0.8-8.2-0.8-12.3c0-20.1,6.6-37,17.2-50.3C14.8,49-0.1,81.4,0,115.5c0,63.8,50.8,115.5,113.4,115.5
	c18.5,0,36.6-4.6,52.9-13.3c4.2-2.3,8.3-4.8,12.3-7.6C178.2,210.1,177.9,210.1,177.6,210.1L177.6,210.1z M50.7,90.5
	c0,3.1,0.1,6.1,0.3,9C50.8,96.6,50.7,93.6,50.7,90.5z M533.8,34.9h-2.8v7.9h-0.7v-7.9h-2.8v-0.6h6.4V34.9 M536,34.3l3.1,7.5l3.1-7.5
	h0.9v8.5h-0.7v-3.7l0.1-3.8l-3.1,7.5h-0.5l-3.1-7.5l0.1,3.8v3.7h-0.7v-8.5L536,34.3 M495.6,115.8h33.1v-7.8H513l16.3-25h-34.1v7.8
	h16.7L495.6,115.8 M457.2,91.3v24.6h11.1V91.3h9.9v-8.2h-31v8.2H457.2 M400,115.8h11.1v-13.7h3c3,0,4.8,3.2,7.1,8.8l2,4.9h11
	l-3.8-8.6c-1.7-3.9-2.9-6.2-5.2-7.2c3.4-1.5,5.1-4.1,5.1-7.6c0-5.1-3.7-9.4-12.3-9.4H400L400,115.8 M411.2,97.1v-8.8h3.3
	c3.5,0,5.5,1.4,5.5,4.3s-2.1,4.4-5.7,4.4L411.2,97.1z M344.2,115.8h11l2.1-5.3h14.4l2.1,5.3h11.1l-14.5-32.8h-11.7L344.2,115.8
	 M359.6,104.6l4.9-13l4.8,13H359.6z M316,232.3h-19.1v19.1h-3.5v-40.9h25.3v2.9h-21.9v15.9H316V232.3 M338.3,223.9
	c-0.8-0.1-1.5-0.2-2.3-0.2c-1.9-0.1-3.8,0.6-5.3,1.8c-1.5,1.3-2.6,3.1-3.1,5.1v20.9h-3.3V221h3.3l0.1,4.8c1.5-3.4,4.9-5.5,8.6-5.4
	c0.8,0,1.5,0.1,2.2,0.4L338.3,223.9 M341.2,235.8c0-2.7,0.5-5.4,1.7-7.9c2.1-4.6,6.8-7.5,11.8-7.4c3.7-0.1,7.4,1.4,9.8,4.3
	c2.5,2.8,3.8,6.6,3.8,11.3v0.7c0,2.7-0.5,5.5-1.7,7.9c-1,2.2-2.7,4.1-4.8,5.4c-2.1,1.3-4.6,2-7.1,1.9c-3.7,0.1-7.4-1.4-9.8-4.3
	c-2.5-2.8-3.8-6.6-3.8-11.3L341.2,235.8 M344.6,236.7c-0.1,3.2,0.9,6.4,2.8,8.9c3.3,4.1,9.4,4.7,13.5,1.3c0.5-0.4,0.9-0.8,1.3-1.3
	c2-2.7,3-5.9,2.8-9.2v-0.6c0-2.2-0.4-4.4-1.3-6.4c-0.8-1.8-2-3.4-3.6-4.5c-1.6-1.1-3.4-1.6-5.3-1.6c-2.9-0.1-5.6,1.2-7.3,3.5
	c-2,2.7-3,5.9-2.8,9.2L344.6,236.7z M378.4,221l0.1,4.9c1-1.7,2.5-3.2,4.2-4.1c1.7-0.9,3.7-1.4,5.6-1.4c4.8,0,7.8,2,9.1,5.9
	c1-1.8,2.5-3.3,4.4-4.4c1.8-1,3.9-1.6,6-1.5c6.5,0,9.8,3.6,10,10.7v20.3h-3.4v-20c0-2.7-0.6-4.7-1.8-6c-1.2-1.3-3-2-5.6-2
	c-2.3,0-4.5,0.8-6.1,2.3c-1.6,1.4-2.6,3.4-2.8,5.6v20.1h-3.4v-20.3c0-2.6-0.6-4.5-1.8-5.8s-3.1-1.9-5.6-1.9c-2,0-3.9,0.6-5.5,1.8
	c-1.6,1.4-2.8,3.3-3.4,5.4v20.8h-3.4V221L378.4,221 M445.7,210.5l15.1,36.1l15.1-36.1h4.6v40.9H477v-17.8l0.3-18.3l-15.2,36.1h-2.7
	l-15.2-35.9l0.3,18v17.9h-3.5v-40.9H445.7 M514,241.4c0.1-2.1-0.8-4.1-2.4-5.4c-1.6-1.3-4.5-2.6-8.7-3.8c-4.2-1.2-7.3-2.5-9.3-3.9
	c-4.3-2.9-5.5-8.8-2.6-13.1c0.6-0.9,1.4-1.7,2.3-2.3c2.9-2.1,6.3-3.1,9.9-2.9c2.5,0,5,0.5,7.3,1.6c2,1,3.8,2.5,5,4.4
	c1.2,1.9,1.8,4,1.8,6.3h-3.5c0.1-2.6-1-5-2.9-6.8c-2.2-1.8-4.9-2.7-7.7-2.5c-2.7-0.1-5.3,0.6-7.5,2.1c-1.8,1.2-2.8,3.3-2.8,5.5
	c0,2,0.9,3.9,2.5,5.1c1.7,1.3,4.3,2.5,8,3.5c2.9,0.7,5.7,1.8,8.3,3.1c1.7,0.9,3.2,2.2,4.3,3.9c1,1.6,1.5,3.4,1.4,5.3
	c0.1,3.1-1.4,6-3.9,7.8c-2.6,1.9-6,2.9-10.2,2.9c-2.7,0-5.4-0.5-7.9-1.5c-2.2-0.9-4.1-2.4-5.5-4.3c-1.3-1.9-1.9-4.1-1.9-6.4h3.5
	c-0.1,2.7,1.1,5.2,3.2,6.8c2.5,1.8,5.5,2.7,8.6,2.5c2.7,0.1,5.4-0.6,7.7-2.1C513,245.7,514.1,243.6,514,241.4 M525.7,210.5h3.5v40.9
	h-3.5V210.5z M248.1,162.1H529v1H248.1L248.1,162.1z"/>
</svg>
